<?xml version="1.0" encoding="utf-8"?>
<!-- Generator: Adobe Illustrator 27.5.0, SVG Export Plug-In . SVG Version: 6.00 Build 0)  -->
<svg version="1.1" xmlns="http://www.w3.org/2000/svg" xmlns:xlink="http://www.w3.org/1999/xlink" x="0px" y="0px"
	 viewBox="0 0 3710 3710" style="enable-background:new 0 0 3710 3710;" xml:space="preserve">
<g id="Background">
	<g>
		<g>
			<rect style="fill:#FFFFFF;" width="3710" height="3710"/>
		</g>
	</g>
</g>
<g id="Illustration">
	<g>
		<path style="fill:#F4F7FA;" d="M2367.441,637.055c-201.335-42.832-410.661-63.361-615.33-50.275
			c-181.402,11.598-387.025,43.255-533.002,156.648c-69.567,54.039-152.529,151.139-175.284,236.801
			c-0.003,0.01-119.778,450.896-359.327,547.515c-239.551,96.62-405.906,1745.606,1410.69,1584.572
			c0,0,1066.97-42.197,1131.214-1257.652c15.519-293.616,6.848-616.401-179.07-861.913
			c-142.47-188.137-342.083-271.789-571.462-330.322C2440.039,653.285,2403.871,644.805,2367.441,637.055z"/>
		<g>
			<path style="fill:#D8DEE8;" d="M2279.084,1638.125l12.147,62.221c-27.094,10.735-52.952,23.607-77.259,38.598l-41.505-47.657
				c-11.324-13.003-31.076-14.22-44.123-2.721l-81.685,71.988c-13.076,11.525-14.517,31.445-3.209,44.496l41.865,48.32
				c-18.004,22.625-34.088,46.765-48.016,72.175l-60.632-20.617c-16.349-5.559-34.229,3.365-39.939,19.937l-35.78,103.833
				c-5.733,16.634,2.894,34.663,19.277,40.26l60.84,20.789c-4.517,28.405-6.529,57.465-6.094,86.885l-63.652,12.981
				c-17.088,3.485-28.326,20.333-25.099,37.64l20.224,108.465c3.241,17.381,19.764,28.646,36.901,25.151l63.84-13.019
				c10.315,27.609,22.795,53.967,37.393,78.77l-49.089,43.632c-13.239,11.765-14.711,32.155-3.284,45.545l71.596,83.885
				c11.47,13.44,31.523,14.76,44.776,2.944l49.084-43.758c22.494,18.501,46.563,34.958,71.899,49.235l-21.123,62.776
				c-5.719,16.997,3.113,35.451,19.733,41.211l104.057,36.062c16.658,5.775,34.776-3.363,40.46-20.401l20.785-62.293
				c28.54,4.544,57.74,6.44,87.292,5.8l12.588,64.483c3.446,17.651,20.254,29.114,37.542,25.588l108.105-22.046
				c17.286-3.525,28.461-20.694,24.965-38.335l-12.674-63.933c27.708-10.883,54.101-24.035,78.898-39.357l42.11,48.601
				c11.691,13.494,31.868,14.823,45.056,2.961l82.388-74.084c13.159-11.833,14.329-32.327,2.621-45.77l-41.972-48.196
				c18.318-23.301,34.546-48.202,48.549-74.37l59.761,20.42c16.701,5.708,34.708-3.374,40.208-20.275l34.34-105.49
				c5.481-16.839-3.594-35.077-20.259-40.744l-59.189-20.125c4.238-29.077,5.823-58.792,4.881-88.816l61.051-12.45
				c17.138-3.495,28.126-20.371,24.542-37.682l-22.367-108.027c-3.569-17.238-20.315-28.379-37.403-24.894l-60.871,12.413
				c-10.91-27.784-23.992-54.246-39.225-79.05l46.234-41.219c13.001-11.589,14.146-31.61,2.562-44.713l-72.298-81.792
				c-11.54-13.055-31.415-14.28-44.4-2.738l-46.527,41.355c-22.793-18.142-47.092-34.263-72.646-48.124l19.759-59.215
				c5.498-16.479-3.366-34.297-19.793-39.806l-102.615-34.403c-16.391-5.495-34.158,3.373-39.69,19.813l-19.973,59.355
				c-28.241-4.179-57.102-5.811-86.299-4.918l-12.23-61.69c-3.366-16.975-19.828-27.928-36.771-24.473l-105.962,21.609
				C2286.817,1604.576,2275.768,1621.14,2279.084,1638.125z M2158.175,2228.035c-33.348-174.464,79.103-343.543,250.987-378.596
				c171.881-35.052,339.625,76.885,374.856,250.966c35.444,175.134-76.534,346.616-250.304,382.053
				C2359.942,2517.896,2191.725,2403.555,2158.175,2228.035z"/>
			<path style="fill:#D8DEE8;" d="M2829.61,1359.658l3.572,18.299c-7.968,3.157-15.573,6.943-22.721,11.351l-12.206-14.016
				c-3.331-3.824-9.139-4.182-12.976-0.8l-24.022,21.171c-3.845,3.389-4.269,9.248-0.944,13.086l12.312,14.21
				c-5.295,6.654-10.025,13.753-14.121,21.226l-17.831-6.063c-4.808-1.635-10.066,0.99-11.746,5.863l-10.522,30.536
				c-1.686,4.892,0.851,10.194,5.669,11.84l17.892,6.114c-1.329,8.353-1.92,16.9-1.792,25.552l-18.719,3.818
				c-5.025,1.025-8.33,5.979-7.381,11.069l5.948,31.898c0.953,5.112,5.813,8.425,10.852,7.397l18.775-3.829
				c3.034,8.119,6.704,15.871,10.997,23.165l-14.436,12.831c-3.893,3.46-4.326,9.456-0.966,13.394l21.055,24.669
				c3.374,3.952,9.271,4.341,13.168,0.866l14.435-12.869c6.615,5.441,13.694,10.281,21.145,14.479l-6.212,18.462
				c-1.682,4.999,0.915,10.426,5.803,12.12l30.602,10.605c4.899,1.698,10.227-0.989,11.899-5.999l6.113-18.32
				c8.393,1.336,16.981,1.894,25.671,1.705l3.702,18.964c1.014,5.191,5.957,8.562,11.041,7.525l31.792-6.483
				c5.083-1.037,8.37-6.086,7.342-11.274l-3.727-18.802c8.149-3.201,15.91-7.068,23.203-11.574l12.384,14.293
				c3.438,3.969,9.372,4.359,13.25,0.871l24.229-21.787c3.87-3.48,4.214-9.507,0.771-13.46l-12.343-14.174
				c5.387-6.852,10.159-14.176,14.278-21.871l17.575,6.005c4.912,1.679,10.207-0.992,11.825-5.962l10.099-31.023
				c1.612-4.952-1.057-10.316-5.958-11.982l-17.407-5.919c1.246-8.551,1.712-17.29,1.436-26.12l17.954-3.661
				c5.04-1.028,8.271-5.991,7.217-11.082l-6.578-31.77c-1.05-5.07-5.975-8.346-11-7.321l-17.901,3.651
				c-3.209-8.171-7.056-15.953-11.536-23.248l13.597-12.122c3.823-3.408,4.16-9.296,0.753-13.15l-21.262-24.054
				c-3.394-3.839-9.239-4.2-13.058-0.805l-13.683,12.162c-6.703-5.335-13.849-10.076-21.364-14.153l5.811-17.415
				c1.617-4.846-0.99-10.086-5.821-11.706l-30.178-10.118c-4.82-1.616-10.045,0.992-11.672,5.827l-5.874,17.456
				c-8.305-1.229-16.793-1.709-25.379-1.446l-3.596-18.142c-0.99-4.992-5.831-8.213-10.814-7.197l-31.162,6.355
				C2831.884,1349.792,2828.635,1354.663,2829.61,1359.658z M2794.052,1533.143c-9.807-51.308,23.263-101.031,73.812-111.34
				c50.548-10.308,99.879,22.611,110.24,73.806c10.424,51.505-22.508,101.935-73.611,112.357
				C2853.389,1618.387,2803.919,1584.761,2794.052,1533.143z"/>
		</g>
		<g>
			<g>
				<g>
					<defs>
						<path id="SVGID_1_" d="M1470.059,2260.854c36.604-111.546,73.86-281.836,30.246-470.897
							c-50.082-217.094-161.022-260.528-260.632-492.586c-142.189-331.256,18.734-571.208-128.464-672.452
							c-71.783-49.372-184.661-49.412-254.254,0.156c-198.553,141.42-144.121,757.415,170.903,997.792
							c142.476,108.716,266.802,95.819,373.719,236.499C1496.052,1983.675,1488.643,2147.669,1470.059,2260.854z"/>
					</defs>
					
						<linearGradient id="SVGID_00000129912225102381681190000004262893104365507239_" gradientUnits="userSpaceOnUse" x1="859.2615" y1="601.5662" x2="1333.9905" y2="2112.0664">
						<stop  offset="0" style="stop-color:#FF9085"/>
						<stop  offset="1" style="stop-color:#FB6FBB"/>
					</linearGradient>
					
						<use xlink:href="#SVGID_1_"  style="overflow:visible;fill:url(#SVGID_00000129912225102381681190000004262893104365507239_);"/>
					<clipPath id="SVGID_00000036237429347689558070000008801036603829322676_">
						<use xlink:href="#SVGID_1_"  style="overflow:visible;"/>
					</clipPath>
					<g style="clip-path:url(#SVGID_00000036237429347689558070000008801036603829322676_);">
						<path style="fill:#FFFFFF;" d="M1492.439,1980.183c-11.938-46.91-27.986-93.008-47.701-137.015
							c-45.31-101.133-95.316-156.762-158.625-227.19c-41.319-45.966-88.152-98.065-142.274-172.764
							c-101.26-139.756-132.686-188.855-160.844-268.002c-55.719-156.613-47.161-297.027-37.102-366.786
							c14.272-98.962,47.476-193.136,98.691-279.907l3.08,1.819c-50.976,86.367-84.025,180.101-98.229,278.599
							c-10.013,69.433-18.531,209.19,36.931,365.076c28.007,78.724,59.346,127.674,160.369,267.102
							c54.012,74.547,100.778,126.571,142.037,172.471c63.52,70.662,113.692,126.475,159.23,228.119
							c19.798,44.193,35.916,90.487,47.903,137.595L1492.439,1980.183z"/>
						<path style="fill:#FFFFFF;" d="M955.807,1064.593l-2.589-1.405c-0.589-0.319-59.391-32.641-111.64-98.42
							c-48.243-60.734-100.663-163.235-76.427-306.65l3.528,0.596c-24.017,142.116,27.91,243.665,75.7,303.829
							c45.604,57.412,96.138,89.06,107.973,96.026c3.274-114.566,76.721-188.807,138.063-231.025
							c66.916-46.054,134.256-64.943,134.928-65.129l0.951,3.449c-0.667,0.184-67.508,18.946-133.935,64.685
							c-61.15,42.106-134.469,116.379-136.501,231.099L955.807,1064.593z"/>
						<path style="fill:#FFFFFF;" d="M972.556,1433.04c-59.473,0-129.356-14.614-193.895-64.846l2.198-2.823
							c144.835,112.731,317.058,44.001,334.162,36.721c-29.255-113.122-3.379-196.57,23.561-246.734
							c29.335-54.626,66.3-82.709,66.67-82.987l2.146,2.862c-0.365,0.274-36.794,27.981-65.746,81.97
							c-26.703,49.794-52.332,132.799-22.783,245.463l0.38,1.453l-1.365,0.627C1116.818,1405.235,1054.589,1433.04,972.556,1433.04z
							"/>
						<path style="fill:#FFFFFF;" d="M1105.228,1648.814c-44.604,0-97.993-8.099-160.113-30.794l1.229-3.36
							c203.524,74.354,312.169-8.936,323.387-18.239c-49.531-115.871,20.225-303.259,20.937-305.145l3.348,1.265
							c-0.71,1.879-70.437,189.233-20.481,303.667l0.512,1.174l-0.946,0.864C1272.321,1598.957,1215.849,1648.814,1105.228,1648.814
							z"/>
					</g>
				</g>
			</g>
			<g>
				<g>
					<defs>
						<path id="SVGID_00000098189618953465405340000013642220649582225339_" d="M1533.773,2126.318
							c11.61-70.226,18.284-179.901-38.879-277.983c-99.725-171.113-281.496-114.352-455.484-297.676
							c-140.329-147.858-96.106-262.776-251.601-361.039c-26.027-16.448-163.551-106.96-265.82-52.443
							c-57.63,30.72-78.51,93.786-82.43,105.626c-59.242,178.936,123.018,459.085,360.576,587.216
							c136.487,73.616,180.522,49.558,420.707,135.416C1361.978,2015.885,1467.947,2080.85,1533.773,2126.318z"/>
					</defs>
					
						<linearGradient id="SVGID_00000065051279192570695170000006131816644140220049_" gradientUnits="userSpaceOnUse" x1="1728.5317" y1="4949.4194" x2="1624.0168" y2="4488.3228">
						<stop  offset="0" style="stop-color:#FF9085"/>
						<stop  offset="1" style="stop-color:#FB6FBB"/>
					</linearGradient>
					
						<use xlink:href="#SVGID_00000098189618953465405340000013642220649582225339_"  style="overflow:visible;fill:url(#SVGID_00000065051279192570695170000006131816644140220049_);"/>
					<clipPath id="SVGID_00000070800510083593281970000014103200109493256630_">
						<use xlink:href="#SVGID_00000098189618953465405340000013642220649582225339_"  style="overflow:visible;"/>
					</clipPath>
					<g style="clip-path:url(#SVGID_00000070800510083593281970000014103200109493256630_);">
						<path style="fill:#FFFFFF;" d="M1553.799,2210.887c-34.758-166.954-100.54-279.042-195.519-333.15
							c-46.336-26.397-83.362-30.587-122.56-35.024c-42.833-4.847-87.122-9.859-145.711-45.29
							c-57.018-34.478-77.403-67.588-103.214-109.506c-22.929-37.237-51.464-83.579-115.482-145.282
							c-56.124-54.093-97.015-79.423-133.092-101.772c-39.492-24.463-70.685-43.784-106.9-91.242
							c-59.001-77.314-89.834-176.373-91.645-294.424l3.577-0.056c1.799,117.269,32.386,215.616,90.913,292.309
							c35.815,46.933,66.761,66.102,105.939,90.371c36.23,22.443,77.294,47.879,133.692,102.236
							c64.345,62.017,93.012,108.574,116.044,145.983c25.557,41.505,45.743,74.29,102.019,108.32
							c57.919,35.024,101.813,39.992,144.262,44.797c39.576,4.479,76.955,8.709,123.93,35.47
							c95.909,54.637,162.275,167.526,197.251,335.529L1553.799,2210.887z"/>
						<path style="fill:#FFFFFF;" d="M740.3,1451.173c-122.043,0-213.15-46.777-268.838-86.908
							c-62.735-45.21-95.326-92.023-95.649-92.491l2.948-2.029c0.318,0.464,32.632,46.85,94.907,91.701
							c57.073,41.104,151.618,89.239,278.825,85.993c-7.648-24.585-71.336-239.917,11.051-332.362l2.67,2.38
							c-85.633,96.087-10.372,328.805-9.601,331.144l0.748,2.274l-2.394,0.074C750.032,1451.099,745.141,1451.173,740.3,1451.173z"
							/>
						<path style="fill:#FFFFFF;" d="M730.928,1649.682c-78.059,0-177.62-16.067-277.514-75.955l1.84-3.068
							c124.258,74.496,248.022,80.725,329.97,72.839c81.289-7.827,138.529-30.681,148.076-34.691
							c-33.082-122.06-3.603-294.179-3.301-295.91l3.525,0.616c-0.304,1.731-29.882,174.487,3.637,295.848l0.41,1.483l-1.405,0.627
							c-0.602,0.269-61.237,26.983-150.599,35.588C768.952,1648.66,750.624,1649.682,730.928,1649.682z"/>
						<path style="fill:#FFFFFF;" d="M836.783,1933.104c-5.952,0-11.956-0.064-18.039-0.195l0.076-3.577
							c124.807,2.699,220.907-23.247,279.533-45.483c56.032-21.251,89.444-43.251,96.781-48.318
							c-91.635-113.851-55.728-299.686-55.353-301.559l3.507,0.703c-0.373,1.864-36.244,187.691,55.825,300.081l1.195,1.458
							l-1.519,1.116C1197.453,1838.313,1065.833,1933.104,836.783,1933.104z"/>
					</g>
				</g>
			</g>
			<g>
				
					<linearGradient id="SVGID_00000143590061006515989080000014194653219921727167_" gradientUnits="userSpaceOnUse" x1="-2617.6477" y1="1725.0883" x2="-3644.9958" y2="2568.9824" gradientTransform="matrix(-0.9456 0.3251 0.3251 0.9456 -2368.6013 1020.5929)">
					<stop  offset="0" style="stop-color:#FF9085"/>
					<stop  offset="1" style="stop-color:#FB6FBB"/>
				</linearGradient>
				<path style="fill:url(#SVGID_00000143590061006515989080000014194653219921727167_);" d="M1536.22,2066.665
					c-39.055-28.069-102.981-68.695-188.964-99.177c-152.936-54.218-223.023-22.232-287.766-86.887
					c-67.017-66.926-23.609-132.845-103.845-207.582c-6.747-6.283-92.898-84.457-170.837-55.347
					c-54.523,20.364-75.753,82.3-85.715,111.36c-38.66,112.786-16.181,284.642,104.144,369.409
					c114.078,80.367,258.509,42.066,304.364,29.58c80.446-21.904,99.511-53.259,181.293-73.087
					C1388.35,2030.82,1477.742,2048.683,1536.22,2066.665z"/>
			</g>
		</g>
		<g>
			
				<linearGradient id="SVGID_00000126299909755761184760000011502073235092314291_" gradientUnits="userSpaceOnUse" x1="1711.5359" y1="3152.1421" x2="1513.4052" y2="3235.3569">
				<stop  offset="0" style="stop-color:#40447E"/>
				<stop  offset="0.9964" style="stop-color:#3C3B6B"/>
			</linearGradient>
			<path style="fill:url(#SVGID_00000126299909755761184760000011502073235092314291_);" d="M3340.552,3043.516l-2820.2-24.788
				v73.343c0,19.907,12.301,36.834,28.96,39.85l797.468,144.426c9.464,1.714,19.062,2.169,28.612,1.356l1934.513-164.669
				c17.271-1.47,30.647-18.449,30.647-38.902V3043.516z"/>
			<g>
				
					<linearGradient id="SVGID_00000096054554212501558570000015752961497621909134_" gradientUnits="userSpaceOnUse" x1="1389.1653" y1="2271.3337" x2="1183.7365" y2="2357.6138">
					<stop  offset="0" style="stop-color:#40447E"/>
					<stop  offset="0.9964" style="stop-color:#3C3B6B"/>
				</linearGradient>
				<path style="fill:url(#SVGID_00000096054554212501558570000015752961497621909134_);" d="M2317.112,2924.623L549.515,3058.796
					c-31.63,2.401-57.348-23.111-57.348-56.989V1644.53c0-33.878,25.718-61.342,57.348-61.342h1767.597
					c26.058,0,47.127,24.827,47.127,55.452v1226.954C2364.24,2896.219,2343.171,2922.645,2317.112,2924.623z"/>
				
					<linearGradient id="SVGID_00000130646358440898261520000010479409834412106911_" gradientUnits="userSpaceOnUse" x1="520.3517" y1="2321.0703" x2="2392.4241" y2="2321.0703">
					<stop  offset="0" style="stop-color:#40447E"/>
					<stop  offset="0.9964" style="stop-color:#3C3B6B"/>
				</linearGradient>
				<path style="fill:url(#SVGID_00000130646358440898261520000010479409834412106911_);" d="M2345.296,2924.623L577.699,3058.796
					c-31.631,2.401-57.348-23.111-57.348-56.989V1644.53c0-33.878,25.717-61.342,57.348-61.342h1767.597
					c26.059,0,47.128,24.827,47.128,55.452v1226.954C2392.424,2896.219,2371.355,2922.645,2345.296,2924.623z"/>
				
					<linearGradient id="SVGID_00000108990794889226932160000011511596369917167279_" gradientUnits="userSpaceOnUse" x1="640.6023" y1="2924.5928" x2="2540.9756" y2="1377.0927">
					<stop  offset="0" style="stop-color:#AA80F9"/>
					<stop  offset="0.9964" style="stop-color:#6165D7"/>
				</linearGradient>
				<path style="fill:url(#SVGID_00000108990794889226932160000011511596369917167279_);" d="M2290.231,2838.121L643.899,2954.668
					c-25.74,1.822-46.657-19.117-46.657-46.774V1719.595c0-27.656,20.917-50.171,46.657-50.285l1646.332-7.318
					c21.496-0.096,38.884,20.248,38.884,45.438v1082.327C2329.115,2814.947,2311.727,2836.599,2290.231,2838.121z"/>
				<path style="fill:#FFFFFF;" d="M1523.925,1620.313c0,12.611-9.098,22.865-20.332,22.901
					c-11.249,0.037-20.377-10.18-20.377-22.82c0-12.64,9.129-22.893,20.377-22.902
					C1514.827,1597.483,1523.925,1607.701,1523.925,1620.313z"/>
				<path style="opacity:0.48;fill:#FFFFFF;" d="M1919.422,2552.369c-136.266-78.752-243.411,21.036-346.814-77.42
					c-62.69-59.691-31.912-104.202-109.05-193.403c-85.436-98.797-141.06-65.586-226.922-154.504
					c-108.567-112.431-54.268-199.905-147.785-280.626c-113.449-97.927-235.798-7.289-343.794-101.204
					c-46.579-40.506-72.136-99.395-85.482-162.023H553.905c-18.517,0-33.554,16.12-33.554,36.005v1406.936
					c0,19.885,15.037,34.86,33.554,33.448l1801.471-137.35c8.841-0.674,16.68-6.218,21.711-14.256
					c-131.873-5.162-212.889-52.647-264.677-101.735C2011.1,2710.206,2028.672,2615.506,1919.422,2552.369z"/>
			</g>
			
				<linearGradient id="SVGID_00000076578396606313540290000001411096768417618083_" gradientUnits="userSpaceOnUse" x1="520.3517" y1="3064.665" x2="3340.5518" y2="3064.665">
				<stop  offset="0" style="stop-color:#40447E"/>
				<stop  offset="0.9964" style="stop-color:#3C3B6B"/>
			</linearGradient>
			<path style="fill:url(#SVGID_00000076578396606313540290000001411096768417618083_);" d="M2415.748,2918.538l-1895.397,141.23
				l826.428,149.67c9.464,1.714,19.062,2.169,28.612,1.356l1965.16-167.278l-894.653-124.019
				C2435.893,2918.111,2425.802,2917.789,2415.748,2918.538z"/>
			
				<linearGradient id="SVGID_00000104695104336222709840000012639620029511362471_" gradientUnits="userSpaceOnUse" x1="796.9197" y1="3041.3455" x2="2863.2627" y2="3041.3455">
				<stop  offset="0" style="stop-color:#40447E"/>
				<stop  offset="0.9964" style="stop-color:#3C3B6B"/>
			</linearGradient>
			<polygon style="opacity:0.3;fill:url(#SVGID_00000104695104336222709840000012639620029511362471_);" points="796.92,3063.319 
				2374.894,2943.99 2863.263,3011.142 1298.882,3138.701 			"/>
			<g style="opacity:0.75;">
				<polygon style="fill:#FFFFFF;" points="933.133,1762.619 751.844,1763.252 751.844,1704.585 933.133,1704.585 				"/>
				<polygon style="fill:#FFFFFF;" points="1883.005,1759.303 1048.286,1762.217 1048.286,1704.585 1883.005,1704.585 				"/>
				<polygon style="fill:#FFFFFF;" points="1223.268,1859.009 1048.286,1860.663 1048.286,1803.03 1223.268,1801.987 				"/>
				<polygon style="fill:#FFFFFF;" points="2141.185,1850.33 1334.449,1857.958 1334.449,1801.324 2141.185,1796.513 				"/>
				<polygon style="fill:#FFFFFF;" points="1223.268,1956.411 1048.286,1959.109 1048.286,1901.477 1223.268,1899.39 				"/>
				<polygon style="fill:#FFFFFF;" points="2141.185,1942.258 1334.449,1954.697 1334.449,1898.063 2141.185,1888.441 				"/>
				<polygon style="fill:#FFFFFF;" points="933.133,2060.018 751.844,2063.895 751.844,2005.227 933.133,2001.983 				"/>
				<polygon style="fill:#FFFFFF;" points="1883.005,2039.707 1048.286,2057.556 1048.286,1999.923 1883.005,1984.989 				"/>
				<polygon style="fill:#FFFFFF;" points="1223.268,2151.217 1048.286,2156.002 1048.286,2098.369 1223.268,2094.195 				"/>
				<polygon style="fill:#FFFFFF;" points="2141.185,2126.115 1334.449,2148.176 1334.449,2091.542 2141.185,2072.298 				"/>
				<polygon style="fill:#FFFFFF;" points="1223.268,2248.619 1048.286,2254.448 1048.286,2196.815 1223.268,2191.597 				"/>
				<polygon style="fill:#FFFFFF;" points="2141.185,2218.043 1334.449,2244.916 1334.449,2188.282 2141.185,2164.226 				"/>
				<polygon style="fill:#FFFFFF;" points="1223.268,2346.022 1048.286,2352.894 1048.286,2295.261 1223.268,2289 				"/>
				<polygon style="fill:#FFFFFF;" points="2141.185,2309.971 1334.449,2341.655 1334.449,2285.021 2141.185,2256.154 				"/>
				<polygon style="fill:#FFFFFF;" points="1506.067,2430.631 1337.124,2438.274 1337.124,2381.649 1506.067,2374.597 				"/>
				<polygon style="fill:#FFFFFF;" points="2264.376,2396.327 1613.444,2425.774 1613.444,2370.114 2264.376,2342.94 				"/>
				<polygon style="fill:#FFFFFF;" points="933.133,2555.682 751.844,2564.964 751.844,2506.297 933.133,2497.648 				"/>
				<polygon style="fill:#FFFFFF;" points="1883.005,2507.047 1048.286,2549.786 1048.286,2492.154 1883.005,2452.329 				"/>
				<polygon style="fill:#FFFFFF;" points="1223.268,2638.229 1048.286,2648.232 1048.286,2590.6 1223.268,2581.208 				"/>
				<polygon style="fill:#FFFFFF;" points="2141.185,2585.756 1334.449,2631.874 1334.449,2575.24 2141.185,2531.939 				"/>
				<polygon style="fill:#FFFFFF;" points="1223.268,2735.632 1048.286,2746.679 1048.286,2689.046 1223.268,2678.61 				"/>
				<polygon style="fill:#FFFFFF;" points="2141.185,2677.685 1334.449,2728.613 1334.449,2671.979 2141.185,2623.867 				"/>
				<polygon style="fill:#FFFFFF;" points="933.133,2853.081 751.844,2865.607 751.844,2806.939 933.133,2795.046 				"/>
				<polygon style="fill:#FFFFFF;" points="1883.005,2787.451 1048.286,2845.125 1048.286,2787.492 1883.005,2732.733 				"/>
			</g>
		</g>
		<g>
			
				<linearGradient id="SVGID_00000147907880076684892670000001427418118940423552_" gradientUnits="userSpaceOnUse" x1="2313.6819" y1="520.463" x2="641.4005" y2="3865.019">
				<stop  offset="0.0036" style="stop-color:#E38DDD"/>
				<stop  offset="1" style="stop-color:#9571F6"/>
			</linearGradient>
			<path style="fill:url(#SVGID_00000147907880076684892670000001427418118940423552_);" d="M2515.935,912.596L972.892,861.891
				c-51.743-1.7-93.866,39.117-93.866,91.176V2456.99c0,52.059,42.123,92.462,93.866,90.253l1543.044-65.889
				c44.631-1.906,80.671-42.41,80.671-90.477V1002.28C2596.607,954.213,2560.567,914.063,2515.935,912.596z"/>
			<path style="opacity:0.74;fill:#FFFFFF;" d="M972.892,2517.271c-35.196,1.456-63.809-26.05-63.809-61.439V953.928
				c0-35.389,28.613-63.175,63.808-62.066l1543.044,48.633c30.402,0.958,54.982,28.29,54.982,61.05v1390.321
				c0,32.76-24.58,60.333-54.981,61.59L972.892,2517.271z"/>
			
				<linearGradient id="SVGID_00000136378592378210086020000013505054689356764065_" gradientUnits="userSpaceOnUse" x1="1590.4161" y1="416.0126" x2="1880.9808" y2="1578.2754">
				<stop  offset="0.0036" style="stop-color:#E38DDD"/>
				<stop  offset="1" style="stop-color:#9571F6"/>
			</linearGradient>
			<path style="fill:url(#SVGID_00000136378592378210086020000013505054689356764065_);" d="M2515.936,912.597L972.892,861.891
				c-51.743-1.7-93.866,39.117-93.866,91.176v67.618l1717.583,44.028v-62.432C2596.608,954.213,2560.568,914.063,2515.936,912.597z"
				/>
			<path style="fill:#FFFFFF;" d="M1045.921,948.785c0,16.911-13.615,30.244-30.434,29.778
				c-16.844-0.466-30.517-14.592-30.517-31.549c0-16.958,13.673-30.288,30.517-29.776
				C1032.305,917.75,1045.921,931.874,1045.921,948.785z"/>
			<path style="fill:#FFFFFF;" d="M1152.154,951.872c0,16.83-13.485,30.101-30.143,29.64c-16.683-0.462-30.226-14.518-30.226-31.394
				c0-16.876,13.543-30.145,30.226-29.637C1138.669,920.987,1152.154,935.042,1152.154,951.872z"/>
			<path style="fill:#FFFFFF;" d="M1257.377,954.93c0,16.75-13.358,29.959-29.857,29.503c-16.524-0.457-29.938-14.444-29.938-31.24
				c0-16.796,13.414-30.003,29.938-29.5C1244.02,924.194,1257.377,938.18,1257.377,954.93z"/>
			<g>
				<polygon style="fill:#FFFFFF;" points="1803.465,1208.858 988.44,1194.208 988.44,1242.13 1803.465,1255.027 				"/>
				<polygon style="fill:#FFFFFF;" points="2416.22,1219.872 2416.22,1264.724 2502.448,1266.088 2502.448,1221.422 				"/>
			</g>
			<g>
				<polygon style="fill:#FFFFFF;" points="1160.746,1359.351 988.44,1357.516 988.44,1308.1 1160.746,1310.317 				"/>
				<polygon style="fill:#FFFFFF;" points="2081.256,1369.152 1270.748,1360.522 1270.748,1311.732 2081.256,1322.158 				"/>
				<polygon style="fill:#FFFFFF;" points="1438.734,1445.016 1270.748,1443.864 1270.748,1395.073 1438.734,1396.598 				"/>
				<polygon style="fill:#FFFFFF;" points="2336.719,1451.177 1545.994,1445.752 1545.994,1397.572 2336.719,1404.75 				"/>
				<polygon style="fill:#FFFFFF;" points="1438.734,1527.722 1270.748,1527.206 1270.748,1478.416 1438.734,1479.304 				"/>
				<polygon style="fill:#FFFFFF;" points="2336.719,1530.482 1545.994,1528.052 1545.994,1479.872 2336.719,1484.055 				"/>
				<polygon style="fill:#FFFFFF;" points="1160.746,1610.627 988.44,1610.75 988.44,1561.333 1160.746,1561.592 				"/>
				<polygon style="fill:#FFFFFF;" points="2081.256,1609.969 1270.748,1610.548 1270.748,1561.758 2081.256,1562.976 				"/>
				<polygon style="fill:#FFFFFF;" points="1438.734,1693.134 1270.748,1693.89 1270.748,1645.1 1438.734,1644.716 				"/>
				<polygon style="fill:#FFFFFF;" points="2336.719,1689.092 1545.994,1692.651 1545.994,1644.471 2336.719,1642.665 				"/>
				<polygon style="fill:#FFFFFF;" points="1438.734,1775.84 1270.748,1777.232 1270.748,1728.442 1438.734,1727.422 				"/>
				<polygon style="fill:#FFFFFF;" points="2336.719,1768.397 1545.994,1774.951 1545.994,1726.771 2336.719,1721.97 				"/>
				<polygon style="fill:#FFFFFF;" points="1438.734,1858.546 1270.748,1860.574 1270.748,1811.784 1438.734,1810.128 				"/>
				<polygon style="fill:#FFFFFF;" points="2336.719,1847.702 1545.994,1857.25 1545.994,1809.07 2336.719,1801.275 				"/>
				<polygon style="fill:#FFFFFF;" points="1712.367,1936.911 1548.58,1939.509 1548.58,1891.335 1712.367,1889.1 				"/>
				<polygon style="fill:#FFFFFF;" points="2459.423,1925.061 1816.963,1935.252 1816.963,1887.672 2459.423,1878.906 				"/>
				<polygon style="fill:#FFFFFF;" points="1160.746,2029.42 988.44,2032.805 988.44,1983.389 1160.746,1980.385 				"/>
				<polygon style="fill:#FFFFFF;" points="2081.256,2011.332 1270.748,2027.258 1270.748,1978.468 2081.256,1964.339 				"/>
				<polygon style="fill:#FFFFFF;" points="1438.734,2106.663 1270.748,2110.6 1270.748,2061.81 1438.734,2058.245 				"/>
				<polygon style="fill:#FFFFFF;" points="2336.719,2085.617 1545.994,2104.149 1545.994,2055.969 2336.719,2039.19 				"/>
				<polygon style="fill:#FFFFFF;" points="1438.734,2189.369 1270.748,2193.942 1270.748,2145.152 1438.734,2140.951 				"/>
				<polygon style="fill:#FFFFFF;" points="2336.719,2164.922 1545.994,2186.449 1545.994,2138.269 2336.719,2118.495 				"/>
				<polygon style="fill:#FFFFFF;" points="1160.746,2280.696 988.44,2286.039 988.44,2236.623 1160.746,2231.661 				"/>
				<polygon style="fill:#FFFFFF;" points="2081.256,2252.149 1270.748,2277.284 1270.748,2228.494 2081.256,2205.156 				"/>
				<polygon style="fill:#FFFFFF;" points="1438.734,2354.781 1270.748,2360.626 1270.748,2311.836 1438.734,2306.363 				"/>
				<polygon style="fill:#FFFFFF;" points="2336.719,2323.532 1545.994,2351.048 1545.994,2302.868 2336.719,2277.105 				"/>
			</g>
			<g style="opacity:0.5;">
				<path style="fill:#FFFFFF;" d="M1916.144,1490.749c-180.225-262.246-492.174-178.809-689.513-468.562
					c-35.589-52.255-59.738-105.427-76.301-154.466l-177.438-5.831c-51.743-1.7-93.866,39.118-93.866,91.177v1503.923
					c0,52.059,42.123,92.462,93.866,90.253l1486.531-63.476c-34.054-49.113-330.655-231.032-407.275-510.343
					C1982.078,1717.99,2024.88,1648.97,1916.144,1490.749z"/>
			</g>
		</g>
		<g>
			<g>
				
					<linearGradient id="SVGID_00000041263971323966733420000014926566401318092931_" gradientUnits="userSpaceOnUse" x1="1837.7653" y1="1541.5736" x2="1795.4833" y2="1609.9711">
					<stop  offset="0" style="stop-color:#FFC444"/>
					<stop  offset="0.9964" style="stop-color:#F36F56"/>
				</linearGradient>
				<path style="fill:url(#SVGID_00000041263971323966733420000014926566401318092931_);" d="M1835.549,1611.37
					c4.293-6.652,12.126-20.81,12.626-39.822c0.974-36.944-26.427-65.758-30.11-64.105c-1.985,0.892,0.532,11.716,1.943,16.513
					c2.935,9.988,6.092,10.953,5.827,15.54c-0.543,9.444-14.176,9.808-21.368,22.34c-5.178,9.025-5.591,21.88,0,32.052
					C1813.745,1610.765,1834.666,1611.36,1835.549,1611.37z"/>
				
					<linearGradient id="SVGID_00000018930569042237611690000008345183054337050761_" gradientUnits="userSpaceOnUse" x1="2440.0232" y1="2351.1086" x2="2457.0972" y2="2386.2188">
					<stop  offset="0" style="stop-color:#FFC444"/>
					<stop  offset="0.9964" style="stop-color:#F36F56"/>
				</linearGradient>
				<polygon style="fill:url(#SVGID_00000018930569042237611690000008345183054337050761_);" points="2420.857,2413.79 
					2410.325,2377.549 2454.295,2344.968 2481.701,2334.72 2465.474,2385.427 				"/>
				
					<linearGradient id="SVGID_00000021807052585647113020000009383969422152312740_" gradientUnits="userSpaceOnUse" x1="1146.9912" y1="3245.2065" x2="1146.9912" y2="3135.0598" gradientTransform="matrix(1 0 0 1 1249.563 0)">
					<stop  offset="0" style="stop-color:#FFC444"/>
					<stop  offset="0.9964" style="stop-color:#F36F56"/>
				</linearGradient>
				<path style="fill:url(#SVGID_00000021807052585647113020000009383969422152312740_);" d="M2366.43,3143.697
					c0,0,24.05,60.501,17.721,87.334c25.82-0.506,42.527-3.796,42.527-3.796s-10.378-27.593-12.404-41.262
					c-2.736-18.469-2.531-48.351-2.531-48.351L2366.43,3143.697z"/>
				<path style="fill:#26264F;" d="M2101.327,3285.204c1.555,1.877,4.315,5.8,4.546,11.115c0.126,2.887-0.534,5.263-1.364,7.446
					c-4.1,10.791-10.541,12.214-17.491,23.664c-4.246,6.996-3.444,9.105-7.335,12.263c-5.128,4.163-11.33,4.401-16.707,4.462
					c-9.085,0.105-22.167-0.22-38.636-2.183c8.631-11.124,17.81-22.424,27.571-33.834c4.281-5.002,8.555-9.889,12.817-14.66
					l25.376-8.575C2093.845,3285.003,2097.586,3285.104,2101.327,3285.204z"/>
				
					<linearGradient id="SVGID_00000110455019205059550080000002767494575919646117_" gradientUnits="userSpaceOnUse" x1="811.2632" y1="3276.5972" x2="811.2632" y2="3143.8523" gradientTransform="matrix(1 0 0 1 1249.563 0)">
					<stop  offset="0" style="stop-color:#FFC444"/>
					<stop  offset="0.9964" style="stop-color:#F36F56"/>
				</linearGradient>
				<path style="fill:url(#SVGID_00000110455019205059550080000002767494575919646117_);" d="M2080.224,3161.998
					c0,0-14.506,75.686,3.952,96.879c15.723,21.193-7.594,6.075-7.594,6.075l-27.846,24.302l-16.706,28.859
					c0,0,15.379-74.077,11.277-103.474c-4.101-29.396-6.153-49.222-6.153-49.222L2080.224,3161.998z"/>
				
					<linearGradient id="SVGID_00000005952207014081529450000011996528459313795248_" gradientUnits="userSpaceOnUse" x1="737.001" y1="2755.1555" x2="1171.2939" y2="2755.1555" gradientTransform="matrix(1 0 0 1 1249.563 0)">
					<stop  offset="0" style="stop-color:#311944"/>
					<stop  offset="1" style="stop-color:#893976"/>
				</linearGradient>
				<path style="fill:url(#SVGID_00000005952207014081529450000011996528459313795248_);" d="M2025.532,2334.108
					c0,0-38.968,34.865-38.968,178.43s18.459,455.305,18.459,455.305l29.537,223.19c0,0,30.626,1.09,51.135-5.062
					c18.458-84.088,48.536-226.331,34.178-345.285c-6.152-129.209,51.274-291.231,51.274-291.231s49.222,164.074,84.089,246.112
					c34.865,82.035,101.246,339.037,107.397,357.497c40.798,3.698,58.223-7.09,58.223-7.09s-26.159-276.575-50.769-381.172
					c-24.612-104.597-22.561-356.86-63.58-428.643C2214.217,2299.242,2025.532,2334.108,2025.532,2334.108z"/>
				
					<linearGradient id="SVGID_00000024697216296708882670000005249320759435976381_" gradientUnits="userSpaceOnUse" x1="723.1986" y1="2431.4138" x2="1036.0826" y2="2956.9382" gradientTransform="matrix(1 0 0 1 1249.563 0)">
					<stop  offset="0" style="stop-color:#311944"/>
					<stop  offset="1" style="stop-color:#893976"/>
				</linearGradient>
				<path style="fill:url(#SVGID_00000024697216296708882670000005249320759435976381_);" d="M2025.533,2334.108
					c0,0-38.97,34.865-38.97,178.43s18.46,455.305,18.46,455.305l29.537,223.19c0,0,30.626,1.09,51.135-5.062
					c18.459-84.088,48.536-226.331,34.18-345.285c-6.153-129.209,51.272-291.231,51.272-291.231s49.222,164.074,84.089,246.112
					c34.865,82.035,101.247,339.038,107.398,357.497c40.796,3.698,58.222-7.09,58.222-7.09s-26.16-276.575-50.769-381.172
					c-24.612-104.597-22.561-356.86-63.579-428.644C2214.218,2299.242,2025.533,2334.108,2025.533,2334.108z"/>
				
					<linearGradient id="SVGID_00000119110196687613850430000004679869608513946266_" gradientUnits="userSpaceOnUse" x1="846.3727" y1="2358.0791" x2="1159.2566" y2="2883.6035" gradientTransform="matrix(1 0 0 1 1249.563 0)">
					<stop  offset="0" style="stop-color:#311944"/>
					<stop  offset="1" style="stop-color:#893976"/>
				</linearGradient>
				<path style="opacity:0.25;fill:url(#SVGID_00000119110196687613850430000004679869608513946266_);" d="M2227.962,2597.16
					c12.15,78.981,36.452,121.51,97.207,176.188c48.603,36.452,12.151,115.434,30.378,176.188
					c6.075,18.226,24.301,36.452,30.377,54.678c22.607,45.217,1.492,100.525,11.743,148.4c15.952-2.203,23.191-6.64,23.191-6.64
					s-26.16-276.575-50.769-381.172c-24.612-104.597-22.561-356.861-63.579-428.644c-92.291-36.916-280.976-2.05-280.976-2.05
					s-38.97,34.865-38.97,178.43c0,11.649,0.124,24.418,0.348,38.024c40.455,35.802,123.194,43.758,174.221,4.071
					c3.083-2.313,6.363-3.73,9.751-4.418c0.157-0.454,0.264-0.76,0.264-0.76s0.085,0.284,0.215,0.71
					C2194.585,2545.929,2222.693,2576.085,2227.962,2597.16z"/>
				<g>
					<path style="fill:#26264F;" d="M2377.824,3253.99c0,0-5.993,0-5.495,7.742c0.501,7.741-2.698,34.374,27.77,35.622
						c30.468,1.248,35.167-2.156,36.166-2.156c0.999,0-7.992-25.475-7.992-25.475l-9.74-12.486l-26.223-2.747L2377.824,3253.99z"/>
					<path style="fill:#444B8C;" d="M2445.382,3280.722c-0.65-6.431-4.248-16.554-7.869-24.701
						c-5.379-12.102-0.963-16.631-6.104-27.654c-1.777-3.811-3.505-7.426-7.261-11.007c-0.865-0.823-9.272-8.593-21.515-8.198
						c-2.41,0.078-6.119,0.24-10.129,2.376c-4.724,2.518-7.091,6.3-9.112,9.62c-3.177,5.218-2.448,6.818-7.341,21.77
						c-0.394,1.199-1.255,3.809-1.917,7.409c-0.508,2.755-0.712,5.068-0.803,6.649c7.992,0,38.711,1.249,45.202,5.994
						c6.494,4.745,9.74,12.737,9.74,20.729c0,7.991,3.996,11.737,7.992,11.488
						C2439.834,3294.974,2446.927,3288.363,2445.382,3280.722z"/>
				</g>
				<path style="fill:#444B8C;" d="M2076.329,3248.245c6.863,0.108,11.898,5.569,15.695,18.732
					c3.798,13.164,22.024,24.809,0.761,22.024c-21.264-2.784-36.708,27.338-44.3,38.479c-7.595,11.138-27.981,21.033-27.475,10.149
					c0.505-10.885,9.501-15.972,12.032-27.11C2035.573,3299.379,2060.675,3248,2076.329,3248.245z"/>
				<path style="fill:#FFFFFF;" d="M2436.994,2351.436c5.046-14.029,36.538-106.184-14.361-190.227
					c-41.669-68.8-113.772-91.247-124.052-94.283c-62.583-18.482-93.949,5.262-113.696-16.591
					c-33.508-37.082,4.449-163.394,77.868-188.695c82.76-28.519,182.041,81.144,222.274,153.172
					c52.781,94.498,39.79,188.418,36.735,207.761c-7.936,50.265-26.388,88.606-40.062,112.146
					C2466.799,2340.292,2451.896,2345.865,2436.994,2351.436z"/>
				<path style="fill:#FFFFFF;" d="M2220.874,1843.809c-73.873-2.955-130.843-1.783-163.025,30.376
					c-33.991,33.968,0.359,72.317-7.021,161.171c-11.299,136.034-97.985,169.271-104.507,307.28
					c-2.199,46.501,5.67,84.508,11.781,107.397c19.025,23.693,50.163,57.128,96.117,85.086
					c66.872,40.685,105.651,33.592,201.688,59.875c157.089,42.992,171.065,94.192,248.959,81.148
					c78.723-13.183,147.791-79.433,139.448-115.813c-4.997-21.788-36.732-15.616-73.27-48.846
					c-47.091-42.827-28.93-83.708-64.733-129.731c-51.425-66.105-123.07-25.694-166.894-82.987
					c-44.329-57.956-26.746-172.157,10.621-234.408c24.406-40.659,34.858-88.306,55.627-130.938
					c1.726-3.542,3.729-9.35,2.847-16.611c-3.371-27.765-49.653-42.825-84.707-53.873
					C2270.344,1846.085,2226.95,1844.05,2220.874,1843.809z"/>
				
					<linearGradient id="SVGID_00000109022155747518408150000018322674946686078128_" gradientUnits="userSpaceOnUse" x1="926.8111" y1="1780.5792" x2="990.9453" y2="1882.5161" gradientTransform="matrix(1 0 0 1 1249.563 0)">
					<stop  offset="0.0036" style="stop-color:#E38DDD"/>
					<stop  offset="1" style="stop-color:#9571F6"/>
				</linearGradient>
				<path style="fill:url(#SVGID_00000109022155747518408150000018322674946686078128_);" d="M2158.65,1840.754l14.57-4.483
					c0,0,3.811,19.725,50.657,22.19c26.001,0,42.811-14.569,42.811-14.569l9.955,7.257c0,0-21.841,27.283-56.577,26.589
					C2175.237,1876.842,2158.65,1840.754,2158.65,1840.754z"/>
				<g>
					
						<linearGradient id="SVGID_00000142141812588198657690000006407407230362376849_" gradientUnits="userSpaceOnUse" x1="1004.2374" y1="1764.9412" x2="933.7542" y2="1878.9581" gradientTransform="matrix(1 0 0 1 1249.563 0)">
						<stop  offset="0" style="stop-color:#FFC444"/>
						<stop  offset="0.9964" style="stop-color:#F36F56"/>
					</linearGradient>
					<path style="fill:url(#SVGID_00000142141812588198657690000006407407230362376849_);" d="M2188.318,1780.751
						c2.807-21.665,19.934-35.544,23.671-38.516c15.647-12.437,18.832-13.689,24.206-14.71l7.339-1.113c0,0,0.395,0.01,0.802,0.034
						c4.296,0.26,17.173,5.286,19.514,6.931c7.479,5.26,1.972,42.506-20.701,88.831c-0.892,3.922-1.782,7.846-2.675,11.768
						c19.761,3.473,24.656,7.038,24.811,9.885c0.337,6.166-21.299,14.033-41.352,14.544c-25.147,0.641-51.847-10.177-51.335-18.252
						c0.207-3.268,4.95-7.3,23.208-11.259c2.854-4.012,5.706-8.024,8.56-12.036
						C2201.776,1813.719,2186.25,1796.711,2188.318,1780.751z"/>
					
						<linearGradient id="SVGID_00000164499280875261607900000003175023277153176980_" gradientUnits="userSpaceOnUse" x1="412.3184" y1="1241.5103" x2="344.1112" y2="1351.8455" gradientTransform="matrix(0.9717 -0.2361 0.2361 0.9717 1534.775 640.4756)">
						<stop  offset="0" style="stop-color:#FFC444"/>
						<stop  offset="0.9964" style="stop-color:#F36F56"/>
					</linearGradient>
					<path style="fill:url(#SVGID_00000164499280875261607900000003175023277153176980_);" d="M2219.403,1772.594
						c5.703-3.414,10.048,3.924,7.362,10.337c-2.686,6.413-11.714,10.426-17.19,6.601
						C2204.098,1785.71,2211.728,1777.187,2219.403,1772.594z"/>
					
						<linearGradient id="SVGID_00000054985053212141701360000006669537918724002691_" gradientUnits="userSpaceOnUse" x1="2207.8997" y1="1277.9467" x2="2798.6021" y2="2216.8274">
						<stop  offset="0" style="stop-color:#444B8C"/>
						<stop  offset="0.9964" style="stop-color:#26264F"/>
					</linearGradient>
					<path style="fill:url(#SVGID_00000054985053212141701360000006669537918724002691_);" d="M2958.664,1772.486
						c-75.076-81.469-249.76-59.127-346.651,6.302c-45.022,30.404-68.129,66.316-121.328,69.331
						c-40.442,2.291-104.778-12.915-138.66-56.725c-4.269-5.519-21.342-28.667-46.979-57.858
						c-11.302-12.869-22.543-24.945-39.965-27.677c-4.426-0.693-19.151-3.089-28.885,6.42c-7.889,7.705-9.823,21.102-7.491,30.759
						c1.396,5.774,3.201,6.383,2.943,10.164c-0.723,10.62-20.067,15.246-18.99,20.595c0.768,3.822,10.836,2.423,12.571,7.22
						c1.9,5.257-9.157,9.781-13.908,23.002c-8.9,5.958-14.524,20.785-16.47,40.625c-2.86,29.165,0.07,52.863,5.597,70.71
						c26.607,85.932,45.64,147.398,91.701,181.722c60.982,45.443,115.893,3.486,271.019-3.151
						c212.412-9.086,265.373,62.913,341.716,13.658C3000.207,2046.081,3036.613,1857.069,2958.664,1772.486z"/>
				</g>
				<path style="fill:#FFFFFF;" d="M1844.524,1606.196c-1.894,17.773-8.3,96.395,45.93,162.779
					c50.674,62.029,122.438,74.419,135.776,76.434c64.524,9.75,92.351-18.059,114.898,0.89
					c38.263,32.153,17.932,162.468-51.338,197.57c-78.082,39.567-191.426-55.49-241.128-121.343
					c-65.208-86.393-65.18-181.207-64.799-200.786c0.988-50.879,14.025-91.383,24.35-116.57c4.241-1.277,10.698-2.69,18.614-2.415
					C1834.371,1603.018,1840.459,1604.716,1844.524,1606.196z"/>
				
					<linearGradient id="SVGID_00000142154756128289532550000017281365945997722270_" gradientUnits="userSpaceOnUse" x1="1981.7502" y1="1890.4963" x2="2317.3459" y2="2580.5952">
					<stop  offset="0" style="stop-color:#FF9085"/>
					<stop  offset="1" style="stop-color:#FB6FBB"/>
				</linearGradient>
				<path style="opacity:0.25;fill:url(#SVGID_00000142154756128289532550000017281365945997722270_);" d="M2507.229,2624.144
					c-18.889-19.365,1.905-58.418-25.998-87.45c-25.896-26.946-55.216-5.177-96.905-28.362
					c-53.471-29.739-38.737-84.181-89.814-113.45c-36.729-21.048-53.989,1.582-111.086-9.454
					c-57.001-11.017-126.426-50.313-160.72-120.54c-14.572-29.84-19.943-59.504-20.656-86.021
					c-25.636,45.802-52.227,89.696-55.729,163.769c-2.199,46.501,5.67,84.508,11.781,107.396
					c19.025,23.693,50.163,57.129,96.117,85.086c66.872,40.685,105.651,33.593,201.688,59.876
					c157.089,42.992,171.065,94.192,248.959,81.148c50.313-8.425,96.572-38.524,121.309-68.65
					C2553.577,2639.809,2520.939,2638.199,2507.229,2624.144z"/>
			</g>
		</g>
		<g>
			
				<linearGradient id="SVGID_00000006684720181460850640000000311816259567073157_" gradientUnits="userSpaceOnUse" x1="2483.5691" y1="1022.9521" x2="2798.6309" y2="1655.2054">
				<stop  offset="0" style="stop-color:#FFC444"/>
				<stop  offset="0.9964" style="stop-color:#F36F56"/>
			</linearGradient>
			<path style="fill:url(#SVGID_00000006684720181460850640000000311816259567073157_);" d="M2906.445,1436.32
				c0.305-111.913-112.092-197.526-239.104-191.482c-69.093,3.288-127.344,33.322-162.813,76.176
				c-0.004-0.013-0.009-0.024-0.013-0.037c-0.218,0.264-0.421,0.538-0.638,0.803c-0.607,0.742-1.193,1.499-1.788,2.249
				c-1.083,1.368-2.15,2.744-3.19,4.138c-0.613,0.823-1.217,1.651-1.815,2.484c-0.998,1.389-1.969,2.791-2.924,4.204
				c-0.545,0.809-1.097,1.613-1.627,2.429c-1.062,1.63-2.083,3.282-3.085,4.943c-0.364,0.601-0.745,1.191-1.099,1.796
				c-1.32,2.249-2.585,4.524-3.795,6.825c-0.321,0.61-0.614,1.234-0.927,1.847c-0.879,1.725-1.738,3.458-2.556,5.21
				c-0.401,0.859-0.779,1.727-1.165,2.592c-0.69,1.55-1.359,3.107-1.999,4.677c-0.372,0.911-0.737,1.825-1.092,2.743
				c-0.622,1.61-1.212,3.232-1.782,4.863c-0.298,0.853-0.607,1.7-0.891,2.558c-0.678,2.05-1.308,4.118-1.903,6.198
				c-0.124,0.434-0.267,0.861-0.388,1.296c-0.693,2.508-1.319,5.041-1.889,7.59c-0.168,0.75-0.305,1.51-0.461,2.264
				c-0.381,1.828-0.74,3.662-1.057,5.51c-0.16,0.941-0.302,1.887-0.445,2.832c-0.26,1.709-0.493,3.426-0.697,5.151
				c-0.115,0.968-0.227,1.936-0.323,2.908c-0.181,1.819-0.319,3.65-0.437,5.486c-0.054,0.854-0.125,1.704-0.167,2.562
				c-0.128,2.683-0.205,5.379-0.196,8.096c0.211,64.643,40.227,123.831,101.485,158.503c5.723,3.239,11.64,6.272,17.736,9.081
				c3.059,1.41,6.164,2.763,9.313,4.059c22.263,9.158,46.758,15.414,72.822,17.958l0,0l0,0l0.001,0
				c3.616,0.353,7.219,0.621,10.812,0.824c1.215,0.069,2.415,0.089,3.627,0.141c2.383,0.102,4.77,0.203,7.141,0.24
				c1.451,0.023,2.887,0,4.334-0.001c2.125-0.002,4.252-0.005,6.364-0.058c1.549-0.04,3.086-0.116,4.629-0.183
				c2.004-0.087,4.009-0.18,6-0.313c1.592-0.106,3.173-0.241,4.757-0.376c1.934-0.166,3.864-0.343,5.784-0.552
				c1.609-0.174,3.21-0.368,4.809-0.573c1.885-0.241,3.763-0.503,5.635-0.785c1.606-0.242,3.209-0.495,4.803-0.767
				c1.856-0.317,3.699-0.662,5.539-1.02c1.584-0.308,3.17-0.616,4.741-0.953c0.58-0.125,1.176-0.224,1.754-0.353
				c-0.013-0.014-0.025-0.028-0.039-0.042C2838.263,1590.067,2906.21,1522.367,2906.445,1436.32z"/>
			<g>
				
					<linearGradient id="SVGID_00000036961590455971908460000007462566396173826462_" gradientUnits="userSpaceOnUse" x1="2582.2966" y1="1275.9482" x2="2886.8257" y2="1840.7592">
					<stop  offset="0" style="stop-color:#FFC444"/>
					<stop  offset="0.9964" style="stop-color:#F36F56"/>
				</linearGradient>
				<path style="fill:url(#SVGID_00000036961590455971908460000007462566396173826462_);" d="M2880.93,1434.483
					c-0.263,110.622-110.615,189.358-234.947,177.283c-113.196-10.994-198.045-94.675-198.374-187.983
					c-0.329-93.545,84.349-173.64,198.073-179.111C2770.653,1238.66,2881.194,1323.526,2880.93,1434.483z"/>
				<g>
					<path style="fill:#FFFFFF;" d="M2571.509,1391.012c-7.646-0.077-13.526,3.031-17.667,9.304
						c-4.125,6.252-6.171,15.002-6.147,26.261c0.051,23.421,7.98,35.436,23.945,36.063c6.762,0.266,14.998-1.282,24.738-4.667
						l0.029,19.038c-8.008,3.29-16.893,4.697-26.634,4.24c-13.865-0.65-24.374-5.767-31.614-15.315
						c-7.2-9.493-10.805-22.813-10.846-40.008c-0.026-10.834,1.705-20.298,5.203-28.413c3.508-8.139,8.581-14.381,15.239-18.724
						c6.693-4.368,14.593-6.55,23.721-6.527c9.373,0.023,18.867,2.561,28.481,7.642l-6.682,18.432
						c-3.656-1.95-7.321-3.65-10.998-5.103C2578.608,1391.788,2575.02,1391.047,2571.509,1391.012z"/>
					<path style="fill:#FFFFFF;" d="M2684.973,1454.349c0.003,10.014-3.404,17.761-10.195,23.22
						c-6.752,5.43-16.091,7.854-27.957,7.297c-10.834-0.508-20.344-3.127-28.558-7.838l-0.025-21.276
						c6.751,3.501,12.493,6.016,17.211,7.535c4.734,1.524,9.08,2.366,13.032,2.521c4.76,0.187,8.422-0.644,10.978-2.497
						c2.562-1.857,3.844-4.717,3.842-8.579c-0.001-2.156-0.569-4.093-1.699-5.811c-1.13-1.715-2.788-3.383-4.972-5.002
						c-2.179-1.616-6.608-4.219-13.264-7.798c-6.206-3.301-10.841-6.422-13.922-9.372c-3.075-2.942-5.526-6.334-7.357-10.178
						c-1.829-3.837-2.745-8.295-2.751-13.379c-0.011-9.576,2.978-17.083,8.993-22.536c6.043-5.481,14.45-8.218,25.267-8.192
						c5.348,0.013,10.472,0.705,15.368,2.078c4.915,1.379,10.075,3.321,15.485,5.828l-7.167,18.223
						c-5.567-2.49-10.154-4.228-13.768-5.223c-3.605-0.991-7.14-1.504-10.606-1.539c-4.111-0.042-7.254,0.95-9.436,2.97
						c-2.179,2.018-3.265,4.667-3.262,7.952c0.002,2.041,0.442,3.827,1.324,5.359c0.883,1.534,2.288,3.028,4.218,4.483
						c1.931,1.458,6.518,4.106,13.787,7.96c9.675,5.138,16.35,10.249,19.975,15.315
						C2683.148,1440.953,2684.971,1447.115,2684.973,1454.349z"/>
					<path style="fill:#FFFFFF;" d="M2776.596,1457.493c-0.01,10.371-3.675,18.389-10.965,24.032
						c-7.248,5.611-17.262,8.105-29.978,7.508c-11.607-0.544-21.789-3.27-30.579-8.158l0-22.013
						c7.224,3.632,13.371,6.242,18.423,7.82c5.07,1.584,9.725,2.461,13.96,2.628c5.101,0.201,9.027-0.655,11.769-2.569
						c2.749-1.919,4.127-4.878,4.13-8.877c0.001-2.232-0.604-4.239-1.813-6.018c-1.209-1.777-2.984-3.505-5.323-5.185
						c-2.334-1.675-7.077-4.375-14.205-8.086c-6.645-3.422-11.606-6.657-14.903-9.713c-3.29-3.047-5.911-6.56-7.866-10.538
						c-1.953-3.971-2.929-8.585-2.929-13.845c0-9.909,3.211-17.676,9.659-23.318c6.48-5.671,15.49-8.504,27.082-8.475
						c5.732,0.014,11.225,0.73,16.473,2.153c5.269,1.428,10.8,3.44,16.6,6.038l-7.711,18.871
						c-5.968-2.581-10.884-4.383-14.757-5.414c-3.864-1.027-7.652-1.56-11.367-1.597c-4.406-0.044-7.775,0.981-10.116,3.071
						c-2.338,2.088-3.504,4.829-3.505,8.229c-0.001,2.113,0.469,3.961,1.412,5.548c0.944,1.589,2.447,3.135,4.514,4.643
						c2.068,1.51,6.979,4.255,14.766,8.251c10.366,5.328,17.517,10.626,21.399,15.875
						C2774.656,1443.617,2776.604,1450.002,2776.596,1457.493z"/>
				</g>
				<g style="opacity:0.3;">
					
						<linearGradient id="SVGID_00000111901802214892300900000011267165305179238844_" gradientUnits="userSpaceOnUse" x1="2493.4729" y1="1315.0983" x2="2786.3459" y2="1902.8245">
						<stop  offset="0" style="stop-color:#FFC444"/>
						<stop  offset="0.9964" style="stop-color:#F36F56"/>
					</linearGradient>
					<path style="fill:url(#SVGID_00000111901802214892300900000011267165305179238844_);" d="M2699.171,1569.406
						c-26.748-56.711,0.287-106.823-35.794-143.428c-35.671-36.189-80.477-4.33-127.044-33.112
						c-17.545-10.844-36.786-31.195-50.976-72.594c-23.955,29.172-37.882,64.899-37.747,103.511
						c0.328,93.307,85.177,176.989,198.373,187.983c27.442,2.665,54.256,0.883,79.447-4.789
						C2712.948,1594.034,2704.748,1581.23,2699.171,1569.406z"/>
				</g>
			</g>
		</g>
		<g>
			
				<linearGradient id="SVGID_00000103971996582067134400000010901445541330503562_" gradientUnits="userSpaceOnUse" x1="2711.6438" y1="520.496" x2="3054.7083" y2="1208.9443">
				<stop  offset="0" style="stop-color:#FFC444"/>
				<stop  offset="0.9964" style="stop-color:#F36F56"/>
			</linearGradient>
			<path style="fill:url(#SVGID_00000103971996582067134400000010901445541330503562_);" d="M3177.019,984.198
				c0-113.795-113.905-208.038-249.17-210.406c-76.836-1.345-143.571,27.427-185.187,72.568c-0.005-0.014-0.01-0.028-0.016-0.042
				c-0.258,0.28-0.499,0.573-0.756,0.855c-0.719,0.79-1.413,1.596-2.118,2.396c-1.284,1.458-2.55,2.928-3.784,4.419
				c-0.728,0.881-1.446,1.768-2.157,2.661c-1.186,1.49-2.342,2.997-3.479,4.517c-0.649,0.87-1.306,1.736-1.938,2.616
				c-1.265,1.759-2.484,3.544-3.68,5.342c-0.434,0.651-0.889,1.288-1.313,1.944c-1.578,2.439-3.091,4.912-4.54,7.417
				c-0.385,0.665-0.736,1.346-1.111,2.015c-1.054,1.882-2.085,3.774-3.067,5.691c-0.482,0.94-0.936,1.891-1.4,2.839
				c-0.829,1.698-1.634,3.407-2.405,5.132c-0.448,1.001-0.888,2.005-1.316,3.015c-0.75,1.772-1.462,3.559-2.15,5.357
				c-0.36,0.94-0.733,1.875-1.076,2.822c-0.82,2.265-1.582,4.551-2.302,6.854c-0.15,0.481-0.324,0.952-0.47,1.435
				c-0.841,2.78-1.601,5.59-2.294,8.423c-0.205,0.834-0.372,1.68-0.563,2.518c-0.464,2.034-0.903,4.074-1.29,6.133
				c-0.195,1.048-0.369,2.103-0.546,3.158c-0.32,1.907-0.606,3.823-0.857,5.75c-0.142,1.081-0.28,2.162-0.4,3.25
				c-0.225,2.034-0.397,4.082-0.547,6.137c-0.069,0.957-0.157,1.907-0.211,2.868c-0.165,3.006-0.267,6.028-0.267,9.077
				c0,72.604,47.535,139.098,118.9,177.116c6.57,3.499,13.344,6.761,20.307,9.767c3.487,1.505,7.021,2.946,10.601,4.321
				c25.168,9.666,52.581,16.05,81.43,18.336l0,0l0,0l0.001,0c3.977,0.315,7.932,0.539,11.87,0.693
				c1.33,0.052,2.644,0.052,3.969,0.086c2.604,0.066,5.21,0.131,7.797,0.128c1.581-0.002,3.145-0.052,4.72-0.079
				c2.311-0.041,4.621-0.082,6.914-0.177c1.68-0.07,3.346-0.179,5.017-0.279c2.168-0.129,4.336-0.263,6.488-0.441
				c1.718-0.142,3.423-0.313,5.131-0.486c2.083-0.211,4.16-0.434,6.225-0.69c1.729-0.214,3.448-0.448,5.163-0.693
				c2.021-0.289,4.033-0.6,6.036-0.932c1.718-0.285,3.43-0.58,5.133-0.896c1.98-0.368,3.945-0.765,5.906-1.174
				c1.687-0.352,3.373-0.705,5.043-1.088c0.617-0.141,1.249-0.256,1.863-0.402c-0.014-0.015-0.027-0.029-0.041-0.043
				C3108.816,1141.843,3177.019,1071.928,3177.019,984.198z"/>
			<g>
				
					<linearGradient id="SVGID_00000167367153809734089180000002499046352478306433_" gradientUnits="userSpaceOnUse" x1="2815.6343" y1="804.5267" x2="3148.8599" y2="1422.5616">
					<stop  offset="0" style="stop-color:#FFC444"/>
					<stop  offset="0.9964" style="stop-color:#F36F56"/>
				</linearGradient>
				<path style="fill:url(#SVGID_00000167367153809734089180000002499046352478306433_);" d="M3143.457,983.183
					c0,113.223-112.773,196.062-246.718,185.436c-128.56-10.199-229.046-103.381-229.046-208.494
					c0-105.113,100.486-188.555,229.046-186.292C3030.684,776.19,3143.457,869.96,3143.457,983.183z"/>
				<g>
					<path style="fill:#FFFFFF;" d="M2797.8,1009.592l-17.161-0.949v-37.156l-31.906-1.576v36.967l-16.95-0.938v-85.418l16.95,0.705
						v33.569l31.906,1.499v-33.74l17.161,0.714V1009.592z"/>
					<path style="fill:#FFFFFF;" d="M2855.995,1012.811l-17.536-0.97v-71.549l-22.317-0.983v-15.278l62.453,2.599v15.429
						l-22.6-0.995V1012.811z"/>
					<path style="fill:#FFFFFF;" d="M2933.124,1017.078l-20.39-70.088l-0.52-0.023c0.73,14.062,1.097,23.439,1.097,28.129v40.887
						l-15.958-0.883v-87.688l24.344,1.013l20.097,68.358l0.35,0.018l21.457-66.632l24.851,1.034v88.937l-17.039-0.943v-41.985
						c0-1.981,0.029-4.266,0.089-6.852c0.059-2.585,0.323-9.45,0.794-20.593l-0.53-0.024l-22.096,68.252L2933.124,1017.078z"/>
					<path style="fill:#FFFFFF;" d="M3016.378,1021.684v-89.32l18.537,0.771v73.889l35.752,1.892v15.77L3016.378,1021.684z"/>
				</g>
				<g style="opacity:0.3;">
					
						<linearGradient id="SVGID_00000071527268462134736240000006870636700161684654_" gradientUnits="userSpaceOnUse" x1="2722.1021" y1="840.3769" x2="3046.9197" y2="1492.2078">
						<stop  offset="0" style="stop-color:#FFC444"/>
						<stop  offset="0.9964" style="stop-color:#F36F56"/>
					</linearGradient>
					<path style="fill:url(#SVGID_00000071527268462134736240000006870636700161684654_);" d="M2954.94,1122.499
						c-29.05-60.635,0.32-113.795-38.9-153.693c-39.358-40.039-89.787-6.968-143.176-40.063
						c-20.4-12.646-42.927-36.014-59.566-82.726c-28.688,31.259-45.606,70.69-45.606,114.108
						c0,105.113,100.486,198.295,229.046,208.494c30.198,2.396,59.352,0.024,86.427-6.424
						C2969.785,1148.61,2960.959,1135.063,2954.94,1122.499z"/>
				</g>
			</g>
		</g>
		<g>
			
				<linearGradient id="SVGID_00000100378553721657125480000004822353375735944320_" gradientUnits="userSpaceOnUse" x1="2182.9829" y1="116.1294" x2="2484.9678" y2="722.1406">
				<stop  offset="0" style="stop-color:#FFC444"/>
				<stop  offset="0.9964" style="stop-color:#F36F56"/>
			</linearGradient>
			<path style="fill:url(#SVGID_00000100378553721657125480000004822353375735944320_);" d="M2659.152,660.947
				c0-104.722-96.597-186.475-211.651-182.733c-65.521,2.131-122.528,31.668-158.123,75.272c-0.004-0.013-0.009-0.025-0.013-0.038
				c-0.221,0.271-0.427,0.553-0.646,0.825c-0.615,0.763-1.209,1.54-1.813,2.311c-1.099,1.407-2.182,2.823-3.239,4.258
				c-0.623,0.848-1.237,1.701-1.846,2.559c-1.015,1.432-2.005,2.878-2.978,4.336c-0.556,0.835-1.118,1.665-1.659,2.508
				c-1.083,1.685-2.126,3.391-3.151,5.109c-0.372,0.622-0.761,1.232-1.124,1.858c-1.351,2.328-2.647,4.685-3.887,7.068
				c-0.329,0.632-0.63,1.278-0.951,1.915c-0.903,1.789-1.785,3.587-2.626,5.405c-0.412,0.892-0.802,1.792-1.199,2.691
				c-0.71,1.609-1.399,3.227-2.06,4.858c-0.384,0.947-0.76,1.896-1.127,2.85c-0.643,1.674-1.252,3.36-1.841,5.055
				c-0.308,0.887-0.628,1.768-0.922,2.661c-0.702,2.133-1.355,4.284-1.972,6.449c-0.128,0.452-0.278,0.896-0.403,1.349
				c-0.72,2.611-1.371,5.247-1.965,7.9c-0.175,0.781-0.319,1.572-0.482,2.356c-0.398,1.903-0.773,3.812-1.105,5.736
				c-0.167,0.979-0.316,1.964-0.467,2.948c-0.274,1.779-0.519,3.566-0.735,5.361c-0.122,1.007-0.24,2.014-0.343,3.026
				c-0.193,1.893-0.34,3.797-0.469,5.706c-0.059,0.888-0.135,1.772-0.18,2.664c-0.141,2.79-0.229,5.592-0.229,8.414
				c0,67.201,40.7,126.479,101.717,158.217c5.611,2.919,11.397,5.607,17.343,8.05c2.977,1.223,5.994,2.385,9.051,3.482
				c21.478,7.716,44.856,12.29,69.443,13.008l0,0l0,0c0.001,0,0.001,0,0.001,0c3.388,0.099,6.757,0.115,10.112,0.066
				c1.133-0.016,2.252-0.079,3.38-0.112c2.218-0.065,4.437-0.13,6.639-0.258c1.346-0.078,2.678-0.2,4.019-0.301
				c1.967-0.149,3.934-0.298,5.886-0.497c1.43-0.146,2.848-0.327,4.27-0.499c1.846-0.223,3.69-0.452,5.522-0.719
				c1.462-0.214,2.913-0.454,4.366-0.695c1.772-0.294,3.54-0.601,5.296-0.936c1.47-0.28,2.933-0.579,4.392-0.888
				c1.719-0.364,3.43-0.747,5.134-1.15c1.461-0.345,2.917-0.7,4.365-1.073c1.684-0.434,3.355-0.895,5.022-1.367
				c1.434-0.406,2.868-0.812,4.288-1.246c0.524-0.16,1.062-0.296,1.584-0.46c-0.012-0.013-0.023-0.025-0.035-0.038
				C2601.344,809.276,2659.152,741.683,2659.152,660.947z"/>
			<g>
				
					<linearGradient id="SVGID_00000031205847153134746130000017202290836388666015_" gradientUnits="userSpaceOnUse" x1="2360.571" y1="514.1766" x2="2653.8909" y2="1058.198">
					<stop  offset="0" style="stop-color:#FFC444"/>
					<stop  offset="0.9964" style="stop-color:#F36F56"/>
				</linearGradient>
				<path style="fill:url(#SVGID_00000031205847153134746130000017202290836388666015_);" d="M2643.342,660.974
					c0,104.453-96.105,186.32-210.583,182.976c-110.213-3.22-196.59-84.792-196.59-182.304s86.377-179.369,196.59-182.953
					C2547.237,474.971,2643.342,556.521,2643.342,660.974z"/>
				<g>
					<path style="fill:#FFFFFF;" d="M2381.111,711.564l-81.726-41.592v-13.395l81.726-47.323v22.799l-56.54,30.2l56.54,26.608
						V711.564z"/>
					<path style="fill:#FFFFFF;" d="M2468.049,590.792l-46.481,140.469l-23.348-0.238l46.113-139.911L2468.049,590.792z"/>
					<path style="fill:#FFFFFF;" d="M2485.326,689.176l59.729-27.259l-59.729-30.558v-23.204l87.105,47.737v14.027l-87.105,42.364
						V689.176z"/>
				</g>
				<g style="opacity:0.3;">
					
						<linearGradient id="SVGID_00000120546130365652300520000007640922072497098634_" gradientUnits="userSpaceOnUse" x1="2280.0188" y1="550.3305" x2="2564.9707" y2="1122.1608">
						<stop  offset="0" style="stop-color:#FFC444"/>
						<stop  offset="0.9964" style="stop-color:#F36F56"/>
					</linearGradient>
					<path style="fill:url(#SVGID_00000120546130365652300520000007640922072497098634_);" d="M2482.546,798.494
						c-24.841-54.69,0.273-105.227-33.268-140.304c-33.691-35.234-76.903-2.299-122.708-30.493
						c-17.517-10.782-36.87-31.413-51.172-73.965c-24.671,30.287-39.228,67.635-39.228,107.914
						c0,97.512,86.377,179.084,196.59,182.304c25.84,0.755,50.77-2.848,73.906-10.115
						C2495.234,821.922,2487.691,809.822,2482.546,798.494z"/>
				</g>
			</g>
		</g>
	</g>
</g>
</svg>
